<svg width="150" height="150" viewBox="0 0 150 150" fill="none" xmlns="http://www.w3.org/2000/svg">
<mask id="mask0_14_35" style="mask-type:alpha" maskUnits="userSpaceOnUse" x="0" y="0" width="150" height="150">
<circle cx="75" cy="75" r="75" fill="#D9D9D9"/>
</mask>
<g mask="url(#mask0_14_35)">
<path d="M-76 -11H178V162H-76V-11Z" fill="#D80027"/>
<path d="M7 25H213V162H7V25Z" fill="#D80027"/>
<path d="M98.0737 120.82L94.1786 114.571L86.9906 116.333L91.7692 110.685L87.8741 104.436L94.7407 107.2L99.4791 101.552L98.9571 108.923L105.824 111.687L98.6359 113.449L98.0737 120.82ZM123.693 57.848L119.637 64.017L124.296 69.7453L117.188 67.8225L113.132 74.0316L112.731 66.6608L105.623 64.738L112.53 62.0942L112.128 54.7234L116.786 60.4518L123.693 57.848ZM101.848 35.1749L101.045 42.5056L107.791 45.55L100.563 47.0722L99.7602 54.4029L96.0659 47.9936L88.878 49.5158L93.8171 44.0278L90.1228 37.6585L96.869 40.6629L101.848 35.1749ZM124.577 89.8146L118.593 94.181L120.922 101.191L114.939 96.8649L108.956 101.271L111.205 94.2211L105.221 89.9348L112.61 89.8947L114.859 82.8444L117.188 89.8547L124.577 89.8146ZM53.1793 43.5471L60.1263 64.9784H82.694L64.4632 78.1576L71.4101 99.5889L53.1793 86.3696L34.9084 99.5889L41.8955 78.1576L23.6246 64.9784H46.2324L53.1793 43.5471Z" fill="#FFDA44"/>
</g>
</svg>
