<svg width="150" height="150" viewBox="0 0 150 150" fill="none" xmlns="http://www.w3.org/2000/svg">
<mask id="mask0_22_22" style="mask-type:alpha" maskUnits="userSpaceOnUse" x="0" y="0" width="150" height="150">
<circle cx="75" cy="75" r="75" fill="#D9D9D9"/>
</mask>
<g mask="url(#mask0_22_22)">
<path d="M-38 0.0014331H187V150H-38V0.0014331Z" fill="white"/>
<path d="M88.5625 8.75445e-08H60.4375V60.936H-38V89.0604H60.4375V149.996H88.5625V89.0604H187V60.936H88.5625V8.75445e-08Z" fill="#D80027"/>
<path d="M135.05 101.085L187 129.946V101.085H135.05ZM98.9565 101.085L187 149.996V136.165L123.854 101.085H98.9565ZM163.548 149.996L98.9565 114.11V149.996H163.548Z" fill="#0052B4"/>
<path d="M98.9565 101.085L187 149.996V136.165L123.854 101.085H98.9565Z" fill="white"/>
<path d="M98.9565 101.085L187 149.996V136.165L123.854 101.085H98.9565Z" fill="#D80027"/>
<path d="M1.70063 101.084L-38 123.139V101.084H1.70063ZM50.0436 107.304V149.996H-26.7979L50.0436 107.304Z" fill="#0052B4"/>
<path d="M25.1463 101.085L-38 136.165V149.996L50.0436 101.085H25.1463Z" fill="#D80027"/>
<path d="M13.9499 48.9119L-38 20.051V48.9119H13.9499ZM50.0436 48.9119L-38 0V13.8311L25.1463 48.9119H50.0436ZM-14.5481 0L50.0436 35.8868V0H-14.5481Z" fill="#0052B4"/>
<path d="M50.0436 48.9119L-38 0V13.8311L25.1463 48.9119H50.0436Z" fill="white"/>
<path d="M50.0436 48.9119L-38 0V13.8311L25.1463 48.9119H50.0436Z" fill="#D80027"/>
<path d="M147.299 48.9129L187 26.8572V48.9129H147.299ZM98.9565 42.693V0.000554575H175.798L98.9565 42.693Z" fill="#0052B4"/>
<path d="M123.854 48.912L187 13.8312V0.000115459L98.9565 48.912H123.854Z" fill="#D80027"/>
</g>
</svg>
