<svg width="258" height="34" viewBox="0 0 258 34" fill="none" xmlns="http://www.w3.org/2000/svg">
<path d="M16.76 8.96C16.84 8.56 16.88 8.01333 16.88 7.32C16.88 6.92 16.8533 6.53333 16.8 6.16C16.7466 5.76 16.6533 5.41333 16.52 5.12C16.3866 4.8 16.1866 4.56 15.92 4.4C15.6533 4.21333 15.3066 4.12 14.88 4.12C14.4 4.12 13.96 4.22666 13.56 4.44C13.16 4.65333 12.8 4.93333 12.48 5.28C12.1866 5.6 11.9466 5.98666 11.76 6.44C11.6 6.86666 11.52 7.32 11.52 7.8C11.52 8.49333 11.6933 9.02666 12.04 9.4C12.4133 9.77333 12.8933 10.08 13.48 10.32C14.0666 10.56 14.7333 10.76 15.48 10.92C16.2266 11.08 17 11.2667 17.8 11.48C18.4666 11.6667 19.1333 11.9067 19.8 12.2C20.4666 12.4933 21.0533 12.8933 21.56 13.4C22.0933 13.88 22.52 14.52 22.84 15.32C23.16 16.0933 23.32 17.0667 23.32 18.24C23.32 19.92 22.9866 21.3333 22.32 22.48C21.6533 23.6267 20.7333 24.56 19.56 25.28C18.3866 26 16.9866 26.52 15.36 26.84C13.76 27.16 12.0133 27.32 10.12 27.32C8.19997 27.32 6.62664 27.2 5.39997 26.96C4.19997 26.6933 3.2533 26.4133 2.55997 26.12C1.7333 25.7733 1.11997 25.3733 0.719971 24.92L2.07997 19.44H9.11997C9.0933 19.68 9.06664 20.0133 9.03997 20.44C9.0133 20.84 8.99997 21.16 8.99997 21.4C8.99997 21.72 9.03997 22.0533 9.11997 22.4C9.19997 22.7467 9.31997 23.0667 9.47997 23.36C9.66664 23.6533 9.91997 23.8933 10.24 24.08C10.56 24.2667 10.96 24.36 11.44 24.36C11.9733 24.36 12.44 24.24 12.84 24C13.2666 23.76 13.6133 23.4667 13.88 23.12C14.1733 22.7467 14.3866 22.3467 14.52 21.92C14.68 21.4667 14.76 21.0267 14.76 20.6C14.76 20.0133 14.6133 19.52 14.32 19.12C14.0533 18.72 13.68 18.3867 13.2 18.12C12.72 17.8267 12.16 17.5867 11.52 17.4C10.9066 17.1867 10.2666 16.9733 9.59997 16.76C8.95997 16.5733 8.27997 16.3467 7.55997 16.08C6.86664 15.8133 6.22664 15.44 5.63997 14.96C5.0533 14.48 4.55997 13.88 4.15997 13.16C3.78664 12.4133 3.59997 11.4667 3.59997 10.32C3.59997 8.61333 4.02664 7.18666 4.87997 6.04C5.75997 4.86666 6.8533 3.92 8.15997 3.2C9.4933 2.48 10.9466 1.97333 12.52 1.68C14.0933 1.36 15.5866 1.2 17 1.2C18.8666 1.2 20.4666 1.42666 21.8 1.88C23.16 2.30666 24.1866 2.81333 24.88 3.4L23.4 8.96H16.76Z" fill="#65E3FF"/>
<path d="M30.7965 33.72H22.6365L27.6765 9.8H34.1965L34.9165 12.36H35.1565C36.1165 11.3467 37.1832 10.6267 38.3565 10.2C39.5565 9.74666 40.7299 9.52 41.8765 9.52C42.8099 9.52 43.5832 9.66666 44.1965 9.96C44.8365 10.2267 45.3432 10.6 45.7165 11.08C46.0899 11.56 46.3565 12.1333 46.5165 12.8C46.6765 13.4667 46.7565 14.1733 46.7565 14.92C46.7565 15.2933 46.7299 15.8533 46.6765 16.6C46.6232 17.3467 46.5032 18.1867 46.3165 19.12C46.1299 20.0267 45.8632 20.9733 45.5165 21.96C45.1699 22.92 44.7032 23.8 44.1165 24.6C43.5565 25.4 42.8365 26.0533 41.9565 26.56C41.1032 27.0667 40.0765 27.32 38.8765 27.32C38.2099 27.32 37.5565 27.24 36.9165 27.08C36.3032 26.92 35.7432 26.7067 35.2365 26.44C34.7299 26.1733 34.2765 25.8667 33.8765 25.52C33.5032 25.1467 33.2232 24.7733 33.0365 24.4H32.7965L30.7965 33.72ZM35.0365 23.44C35.6765 23.44 36.2099 23.1067 36.6365 22.44C37.0632 21.7467 37.4099 20.9467 37.6765 20.04C37.9432 19.1067 38.1299 18.1867 38.2365 17.28C38.3699 16.3467 38.4365 15.6533 38.4365 15.2C38.4365 14.6667 38.3432 14.2267 38.1565 13.88C37.9965 13.5333 37.6899 13.36 37.2365 13.36C36.7299 13.36 36.2499 13.5467 35.7965 13.92C35.3432 14.2667 35.0099 14.5733 34.7965 14.84L33.2365 22.16C33.4499 22.4533 33.7032 22.7467 33.9965 23.04C34.2899 23.3067 34.6365 23.44 35.0365 23.44Z" fill="#65E3FF"/>
<path d="M56.5559 18.96C56.4492 19.5467 56.3692 20.1067 56.3159 20.64C56.2892 21.1733 56.2759 21.6533 56.2759 22.08C56.2759 22.32 56.2892 22.5867 56.3159 22.88C56.3426 23.1733 56.3959 23.4533 56.4759 23.72C56.5826 23.96 56.7159 24.1733 56.8759 24.36C57.0626 24.52 57.3159 24.6 57.6359 24.6C57.8759 24.6 58.1426 24.52 58.4359 24.36C58.7559 24.2 59.0626 23.9733 59.3559 23.68C59.6759 23.3867 59.9692 23.0267 60.2359 22.6C60.5292 22.1733 60.7559 21.6933 60.9159 21.16H67.4759L66.4359 25.44C65.9026 25.7867 65.2892 26.08 64.5959 26.32C63.9026 26.56 63.1692 26.76 62.3959 26.92C61.6226 27.0533 60.8359 27.1467 60.0359 27.2C59.2359 27.28 58.4759 27.32 57.7559 27.32C56.4226 27.32 55.1826 27.2 54.0359 26.96C52.8892 26.72 51.8892 26.3067 51.0359 25.72C50.1826 25.1333 49.5026 24.36 48.9959 23.4C48.5159 22.4133 48.2759 21.2 48.2759 19.76C48.2759 18.4533 48.4759 17.1733 48.8759 15.92C49.3026 14.6667 49.9959 13.56 50.9559 12.6C51.9426 11.6133 53.2492 10.8267 54.8759 10.24C56.5292 9.65333 58.5826 9.36 61.0359 9.36C63.7026 9.36 65.7026 9.77333 67.0359 10.6C68.3959 11.4267 69.0759 12.72 69.0759 14.48C69.0759 15.2 68.9692 15.9867 68.7559 16.84C68.5426 17.6667 68.2226 18.3733 67.7959 18.96H56.5559ZM61.8759 14.2C61.8759 13.3733 61.7426 12.8133 61.4759 12.52C61.2092 12.2267 60.8892 12.08 60.5159 12.08C60.0892 12.08 59.6892 12.2267 59.3159 12.52C58.9692 12.7867 58.6492 13.16 58.3559 13.64C58.0626 14.0933 57.7959 14.6267 57.5559 15.24C57.3159 15.8267 57.1159 16.4533 56.9559 17.12H61.5159C61.5692 16.8 61.6226 16.4667 61.6759 16.12C61.7292 15.8267 61.7692 15.5067 61.7959 15.16C61.8492 14.8133 61.8759 14.4933 61.8759 14.2Z" fill="#65E3FF"/>
<path d="M72.5909 11.28C73.9509 10.6133 75.3376 10.1333 76.7509 9.84C78.1909 9.52 79.7909 9.36 81.5509 9.36C83.2576 9.36 84.6709 9.49333 85.7909 9.76C86.9109 10.0267 87.8042 10.4133 88.4709 10.92C89.1376 11.4267 89.6042 12.0267 89.8709 12.72C90.1376 13.4133 90.2709 14.2 90.2709 15.08C90.2709 15.5867 90.2309 16.1333 90.1509 16.72C90.0976 17.3067 90.0309 17.8 89.9509 18.2L88.0709 27H81.6309L80.9109 24.44H80.6709C79.8176 25.3733 78.8176 26.0933 77.6709 26.6C76.5509 27.08 75.4309 27.32 74.3109 27.32C73.6709 27.32 73.0442 27.2267 72.4309 27.04C71.8176 26.8533 71.2709 26.5733 70.7909 26.2C70.3109 25.8 69.9242 25.3067 69.6309 24.72C69.3376 24.1067 69.1909 23.3733 69.1909 22.52C69.1909 21.1333 69.5642 20.04 70.3109 19.24C71.0842 18.4133 72.0842 17.8 73.3109 17.4C74.5642 16.9733 75.9642 16.7067 77.5109 16.6C79.0842 16.4933 80.6576 16.44 82.2309 16.44C82.2842 16.1733 82.3509 15.8 82.4309 15.32C82.5109 14.8133 82.5509 14.3733 82.5509 14C82.5509 13.52 82.4176 13.08 82.1509 12.68C81.9109 12.2533 81.3909 12.04 80.5909 12.04C79.6576 12.04 78.9642 12.32 78.5109 12.88C78.0842 13.4133 77.8042 14.0667 77.6709 14.84H71.8309L72.5909 11.28ZM81.7909 18.32H81.0709C80.2976 18.32 79.6309 18.4267 79.0709 18.64C78.5376 18.8267 78.0976 19.08 77.7509 19.4C77.4309 19.72 77.1909 20.08 77.0309 20.48C76.8709 20.88 76.7909 21.28 76.7909 21.68C76.7909 22.32 76.9509 22.8 77.2709 23.12C77.6176 23.44 78.0176 23.6 78.4709 23.6C79.0309 23.6 79.5776 23.4 80.1109 23C80.6709 22.6 81.0176 22.0667 81.1509 21.4L81.7909 18.32Z" fill="#65E3FF"/>
<path d="M101.661 17.08L110.981 9.8H116.261L108.301 16.32L114.261 27H105.301L101.221 18.96L99.5412 27H91.3812L97.0612 0.119995H105.261L101.661 17.08Z" fill="#65E3FF"/>
<path d="M123.447 27H115.327L118.967 9.8H127.167L123.447 27ZM128.207 4.56C128.207 5.17333 128.073 5.70666 127.807 6.16C127.567 6.61333 127.233 7 126.807 7.32C126.407 7.64 125.94 7.88 125.407 8.04C124.873 8.2 124.327 8.28 123.767 8.28C122.7 8.28 121.807 8.02666 121.087 7.52C120.367 7.01333 120.007 6.21333 120.007 5.12C120.007 4.53333 120.127 4.01333 120.367 3.56C120.607 3.08 120.927 2.69333 121.327 2.4C121.753 2.08 122.233 1.84 122.767 1.68C123.327 1.52 123.9 1.43999 124.487 1.43999C125.527 1.43999 126.407 1.69333 127.127 2.2C127.847 2.70666 128.207 3.49333 128.207 4.56Z" fill="#65E3FF"/>
<path d="M138.165 12.36C138.725 11.8267 139.352 11.3333 140.045 10.88C140.659 10.5067 141.379 10.16 142.205 9.84C143.032 9.52 143.952 9.36 144.965 9.36C146.352 9.36 147.499 9.72 148.405 10.44C149.312 11.1333 149.765 12.0933 149.765 13.32C149.765 13.6667 149.725 14.0933 149.645 14.6C149.565 15.08 149.472 15.5867 149.365 16.12C149.259 16.6533 149.139 17.2 149.005 17.76C148.899 18.2933 148.805 18.7733 148.725 19.2L147.045 27H138.925L141.125 16.56C141.179 16.2133 141.245 15.8667 141.325 15.52C141.405 15.1467 141.445 14.8133 141.445 14.52C141.445 14.12 141.339 13.8 141.125 13.56C140.939 13.2933 140.645 13.16 140.245 13.16C139.765 13.16 139.299 13.3333 138.845 13.68C138.419 14.0267 138.085 14.32 137.845 14.56L135.205 27H127.045L130.685 9.8H137.205L137.925 12.36H138.165Z" fill="#65E3FF"/>
<path d="M167.203 9.8H173.683L170.403 25.36C170.163 26.56 169.763 27.6667 169.203 28.68C168.643 29.6933 167.856 30.5733 166.843 31.32C165.856 32.0667 164.603 32.6533 163.083 33.08C161.589 33.5067 159.763 33.72 157.603 33.72C157.203 33.72 156.723 33.7067 156.163 33.68C155.603 33.68 155.029 33.6667 154.443 33.64C153.856 33.64 153.296 33.6267 152.763 33.6C152.229 33.5733 151.803 33.5467 151.483 33.52L152.243 30.64C153.096 30.7733 153.963 30.84 154.843 30.84C155.749 30.8667 156.523 30.88 157.163 30.88C157.963 30.88 158.629 30.8 159.163 30.64C159.723 30.5067 160.176 30.28 160.523 29.96C160.896 29.64 161.189 29.2133 161.403 28.68C161.643 28.1467 161.829 27.4933 161.963 26.72L162.443 24.12H162.163C162.003 24.36 161.763 24.6533 161.443 25C161.149 25.32 160.763 25.64 160.283 25.96C159.803 26.2533 159.229 26.5067 158.563 26.72C157.923 26.9067 157.189 27 156.363 27C155.429 27 154.629 26.8667 153.963 26.6C153.323 26.3067 152.803 25.92 152.403 25.44C152.003 24.9333 151.709 24.3467 151.523 23.68C151.336 22.9867 151.243 22.24 151.243 21.44C151.243 21.0933 151.269 20.56 151.323 19.84C151.376 19.12 151.496 18.3067 151.683 17.4C151.896 16.4933 152.189 15.5733 152.563 14.64C152.963 13.68 153.483 12.8133 154.123 12.04C154.789 11.2667 155.603 10.6267 156.563 10.12C157.549 9.61333 158.736 9.36 160.123 9.36C160.549 9.36 161.016 9.4 161.523 9.48C162.029 9.56 162.523 9.70666 163.003 9.92C163.483 10.1333 163.909 10.44 164.283 10.84C164.656 11.24 164.949 11.76 165.163 12.4H165.403L167.203 9.8ZM162.723 13.28C162.083 13.28 161.549 13.6267 161.123 14.32C160.696 14.9867 160.349 15.7733 160.083 16.68C159.816 17.5867 159.616 18.4933 159.483 19.4C159.376 20.28 159.323 20.9333 159.323 21.36C159.323 21.8933 159.403 22.3467 159.563 22.72C159.749 23.0667 160.069 23.24 160.523 23.24C160.789 23.24 161.043 23.1733 161.283 23.04C161.549 22.9067 161.789 22.76 162.003 22.6C162.243 22.4133 162.443 22.2267 162.603 22.04C162.789 21.8533 162.923 21.7067 163.003 21.6L164.483 14.6C164.269 14.3067 164.016 14.0133 163.723 13.72C163.456 13.4267 163.123 13.28 162.723 13.28Z" fill="#65E3FF"/>
<path d="M186.848 16.04C187.648 16.04 188.314 15.7067 188.848 15.04C189.408 14.3733 189.861 13.56 190.208 12.6C190.581 11.64 190.848 10.64 191.008 9.6C191.168 8.56 191.248 7.65333 191.248 6.88C191.248 6.16 191.128 5.56 190.888 5.08C190.648 4.57333 190.128 4.32 189.328 4.32H187.528L185.008 16.04H186.848ZM184.448 18.6L182.648 27H174.008L179.408 1.6H188.648C190.168 1.6 191.554 1.68 192.808 1.84C194.061 2 195.141 2.32 196.048 2.8C196.954 3.28 197.661 3.97333 198.168 4.88C198.674 5.76 198.928 6.94666 198.928 8.44C198.928 9.82666 198.701 11.1467 198.248 12.4C197.821 13.6267 197.114 14.7067 196.128 15.64C195.168 16.5467 193.914 17.2667 192.368 17.8C190.821 18.3333 188.941 18.6 186.728 18.6H184.448Z" fill="#65E3FF"/>
<path d="M200.677 11.28C202.037 10.6133 203.424 10.1333 204.837 9.84C206.277 9.52 207.877 9.36 209.637 9.36C211.344 9.36 212.757 9.49333 213.877 9.76C214.997 10.0267 215.89 10.4133 216.557 10.92C217.224 11.4267 217.69 12.0267 217.957 12.72C218.224 13.4133 218.357 14.2 218.357 15.08C218.357 15.5867 218.317 16.1333 218.237 16.72C218.184 17.3067 218.117 17.8 218.037 18.2L216.157 27H209.717L208.997 24.44H208.757C207.904 25.3733 206.904 26.0933 205.757 26.6C204.637 27.08 203.517 27.32 202.397 27.32C201.757 27.32 201.13 27.2267 200.517 27.04C199.904 26.8533 199.357 26.5733 198.877 26.2C198.397 25.8 198.01 25.3067 197.717 24.72C197.424 24.1067 197.277 23.3733 197.277 22.52C197.277 21.1333 197.65 20.04 198.397 19.24C199.17 18.4133 200.17 17.8 201.397 17.4C202.65 16.9733 204.05 16.7067 205.597 16.6C207.17 16.4933 208.744 16.44 210.317 16.44C210.37 16.1733 210.437 15.8 210.517 15.32C210.597 14.8133 210.637 14.3733 210.637 14C210.637 13.52 210.504 13.08 210.237 12.68C209.997 12.2533 209.477 12.04 208.677 12.04C207.744 12.04 207.05 12.32 206.597 12.88C206.17 13.4133 205.89 14.0667 205.757 14.84H199.917L200.677 11.28ZM209.877 18.32H209.157C208.384 18.32 207.717 18.4267 207.157 18.64C206.624 18.8267 206.184 19.08 205.837 19.4C205.517 19.72 205.277 20.08 205.117 20.48C204.957 20.88 204.877 21.28 204.877 21.68C204.877 22.32 205.037 22.8 205.357 23.12C205.704 23.44 206.104 23.6 206.557 23.6C207.117 23.6 207.664 23.4 208.197 23C208.757 22.6 209.104 22.0667 209.237 21.4L209.877 18.32Z" fill="#65E3FF"/>
<path d="M232.147 14.84C232.174 14.7067 232.2 14.5733 232.227 14.44C232.254 14.3067 232.267 14.16 232.267 14C232.267 13.52 232.174 13.08 231.987 12.68C231.827 12.2533 231.494 12.04 230.987 12.04C230.534 12.04 230.08 12.24 229.627 12.64C229.174 13.0133 228.947 13.52 228.947 14.16C228.947 14.5867 229.054 14.9333 229.267 15.2C229.507 15.44 229.814 15.64 230.187 15.8C230.56 15.96 230.974 16.0933 231.427 16.2C231.907 16.3067 232.374 16.4133 232.827 16.52C233.467 16.68 234.067 16.88 234.627 17.12C235.214 17.3333 235.734 17.6267 236.187 18C236.64 18.3733 237 18.84 237.267 19.4C237.534 19.9333 237.667 20.6 237.667 21.4C237.667 22.52 237.4 23.4667 236.867 24.24C236.36 24.9867 235.64 25.6 234.707 26.08C233.8 26.5333 232.72 26.8533 231.467 27.04C230.24 27.2267 228.92 27.32 227.507 27.32C225.347 27.32 223.56 27.16 222.147 26.84C220.734 26.52 219.747 26.2133 219.187 25.92L220.027 21.92H225.427C225.4 22.0533 225.387 22.1867 225.387 22.32C225.387 22.4267 225.387 22.5467 225.387 22.68C225.387 23.2933 225.52 23.7867 225.787 24.16C226.08 24.5067 226.574 24.68 227.267 24.68C228.04 24.68 228.587 24.4667 228.907 24.04C229.254 23.5867 229.427 23.1733 229.427 22.8C229.427 22.4267 229.28 22.1067 228.987 21.84C228.72 21.5467 228.374 21.3067 227.947 21.12C227.52 20.9067 227.04 20.7333 226.507 20.6C226 20.44 225.507 20.2933 225.027 20.16C224.68 20.08 224.28 19.9467 223.827 19.76C223.4 19.5733 222.987 19.3067 222.587 18.96C222.187 18.6133 221.854 18.1733 221.587 17.64C221.32 17.08 221.187 16.3867 221.187 15.56C221.187 14.3867 221.467 13.4133 222.027 12.64C222.614 11.84 223.36 11.2 224.267 10.72C225.2 10.24 226.24 9.89333 227.387 9.68C228.56 9.46666 229.734 9.36 230.907 9.36C232.374 9.36 233.76 9.49333 235.067 9.76C236.374 10.0267 237.44 10.3733 238.267 10.8L237.347 14.84H232.147Z" fill="#65E3FF"/>
<path d="M251.639 14.84C251.666 14.7067 251.693 14.5733 251.719 14.44C251.746 14.3067 251.759 14.16 251.759 14C251.759 13.52 251.666 13.08 251.479 12.68C251.319 12.2533 250.986 12.04 250.479 12.04C250.026 12.04 249.573 12.24 249.119 12.64C248.666 13.0133 248.439 13.52 248.439 14.16C248.439 14.5867 248.546 14.9333 248.759 15.2C248.999 15.44 249.306 15.64 249.679 15.8C250.053 15.96 250.466 16.0933 250.919 16.2C251.399 16.3067 251.866 16.4133 252.319 16.52C252.959 16.68 253.559 16.88 254.119 17.12C254.706 17.3333 255.226 17.6267 255.679 18C256.133 18.3733 256.493 18.84 256.759 19.4C257.026 19.9333 257.159 20.6 257.159 21.4C257.159 22.52 256.893 23.4667 256.359 24.24C255.853 24.9867 255.133 25.6 254.199 26.08C253.293 26.5333 252.213 26.8533 250.959 27.04C249.733 27.2267 248.413 27.32 246.999 27.32C244.839 27.32 243.053 27.16 241.639 26.84C240.226 26.52 239.239 26.2133 238.679 25.92L239.519 21.92H244.919C244.893 22.0533 244.879 22.1867 244.879 22.32C244.879 22.4267 244.879 22.5467 244.879 22.68C244.879 23.2933 245.013 23.7867 245.279 24.16C245.573 24.5067 246.066 24.68 246.759 24.68C247.533 24.68 248.079 24.4667 248.399 24.04C248.746 23.5867 248.919 23.1733 248.919 22.8C248.919 22.4267 248.773 22.1067 248.479 21.84C248.213 21.5467 247.866 21.3067 247.439 21.12C247.013 20.9067 246.533 20.7333 245.999 20.6C245.493 20.44 244.999 20.2933 244.519 20.16C244.173 20.08 243.773 19.9467 243.319 19.76C242.893 19.5733 242.479 19.3067 242.079 18.96C241.679 18.6133 241.346 18.1733 241.079 17.64C240.813 17.08 240.679 16.3867 240.679 15.56C240.679 14.3867 240.959 13.4133 241.519 12.64C242.106 11.84 242.853 11.2 243.759 10.72C244.693 10.24 245.733 9.89333 246.879 9.68C248.053 9.46666 249.226 9.36 250.399 9.36C251.866 9.36 253.253 9.49333 254.559 9.76C255.866 10.0267 256.933 10.3733 257.759 10.8L256.839 14.84H251.639Z" fill="#65E3FF"/>
</svg>
