<svg width="150" height="150" viewBox="0 0 150 150" fill="none" xmlns="http://www.w3.org/2000/svg">
<mask id="mask0_104_273" style="mask-type:alpha" maskUnits="userSpaceOnUse" x="0" y="0" width="150" height="150">
<circle cx="75" cy="75" r="75" fill="#D9D9D9"/>
</mask>
<g mask="url(#mask0_104_273)">
<path d="M-28 -3H179V48.6667H-28V-3Z" fill="#FF9933"/>
<path d="M-28 48.6667H179V100.333H-28V48.6667Z" fill="white"/>
<path d="M-28 100.333H179V152H-28V100.333Z" fill="#128807"/>
<path d="M75.5 95.1667C86.9323 95.1667 96.2 85.9139 96.2 74.5C96.2 63.0861 86.9323 53.8333 75.5 53.8333C64.0677 53.8333 54.8 63.0861 54.8 74.5C54.8 85.9139 64.0677 95.1667 75.5 95.1667Z" fill="#000088"/>
<path d="M75.5 92.5833C85.5033 92.5833 93.6125 84.4872 93.6125 74.5C93.6125 64.5129 85.5033 56.4167 75.5 56.4167C65.4967 56.4167 57.3875 64.5129 57.3875 74.5C57.3875 84.4872 65.4967 92.5833 75.5 92.5833Z" fill="white"/>
<path d="M75.5 78.1167C77.5007 78.1167 79.1225 76.4974 79.1225 74.5C79.1225 72.5026 77.5007 70.8833 75.5 70.8833C73.4994 70.8833 71.8775 72.5026 71.8775 74.5C71.8775 76.4974 73.4994 78.1167 75.5 78.1167Z" fill="#000088"/>
<path d="M93.3356 77.7891C93.8457 77.8562 94.3136 77.4977 94.3807 76.9885C94.4479 76.4793 94.0888 76.0121 93.5788 75.9451C93.0687 75.878 92.6008 76.2365 92.5337 76.7457C92.4665 77.2549 92.8256 77.7221 93.3356 77.7891Z" fill="#000088"/>
<path d="M75.5 92.5833L76.121 81.7333L75.5 76.5667L74.879 81.7333L75.5 92.5833Z" fill="#000088"/>
<path d="M91.875 82.2861C92.3501 82.4825 92.895 82.2569 93.092 81.7823C93.2891 81.3076 93.0636 80.7636 92.5884 80.5672C92.1133 80.3708 91.5684 80.5963 91.3714 81.071C91.1743 81.5456 91.3998 82.0897 91.875 82.2861Z" fill="#000088"/>
<path d="M70.8115 91.9674L74.2243 81.647L74.9649 76.496L73.0259 81.3265L70.8115 91.9674Z" fill="#000088"/>
<path d="M89.2986 86.2522C89.7066 86.5647 90.2914 86.4876 90.6047 86.08C90.918 85.6724 90.8413 85.0886 90.4333 84.776C90.0253 84.4635 89.4405 84.5406 89.1272 84.9482C88.8139 85.3559 88.8906 85.9397 89.2986 86.2522Z" fill="#000088"/>
<path d="M66.4433 90.1609L72.415 81.0739L74.4654 76.2895L71.3403 80.4544L66.4433 90.1609Z" fill="#000088"/>
<path d="M85.7819 89.4174C86.095 89.8247 86.6797 89.9014 87.088 89.5886C87.4963 89.2758 87.5735 88.692 87.2604 88.2846C86.9474 87.8773 86.3626 87.8006 85.9543 88.1134C85.5461 88.4262 85.4689 89.01 85.7819 89.4174Z" fill="#000088"/>
<path d="M62.6922 87.2871L70.8159 80.0528L74.0366 75.9611L69.9383 79.1765L62.6922 87.2871Z" fill="#000088"/>
<path d="M81.565 91.5655C81.7621 92.0402 82.307 92.2658 82.7821 92.0694C83.2572 91.873 83.4827 91.329 83.2856 90.8543C83.0886 90.3796 82.5437 90.154 82.0686 90.3504C81.5934 90.5468 81.368 91.0908 81.565 91.5655Z" fill="#000088"/>
<path d="M59.8144 83.5412L69.5363 78.6542L73.7071 75.5338L68.9148 77.5794L59.8144 83.5412Z" fill="#000088"/>
<path d="M76.9343 92.5511C77.0016 93.0605 77.4695 93.4193 77.9794 93.3524C78.4893 93.2855 78.8481 92.8183 78.7808 92.3089C78.7135 91.7996 78.2456 91.4408 77.7357 91.5077C77.2258 91.5746 76.867 92.0418 76.9343 92.5511Z" fill="#000088"/>
<path d="M58.0049 79.1797L68.6627 76.9719L73.5003 75.0355L68.3409 75.7728L58.0049 79.1797Z" fill="#000088"/>
<path d="M72.2053 92.3066C72.1383 92.8157 72.4976 93.2828 73.0078 93.35C73.518 93.4172 73.9859 93.059 74.0529 92.55C74.1199 92.0409 73.7606 91.5737 73.2504 91.5065C72.7402 91.4393 72.2723 91.7975 72.2053 92.3066Z" fill="#000088"/>
<path d="M57.3877 74.4972L68.2551 75.1182L73.4298 74.5028L68.2547 73.8838L57.3877 74.4972Z" fill="#000088"/>
<path d="M67.7015 90.8487C67.5047 91.3232 67.7305 91.8672 68.2059 92.0638C68.6812 92.2605 69.2261 92.0352 69.4229 91.5608C69.6197 91.0863 69.3939 90.5423 68.9186 90.3457C68.4432 90.149 67.8983 90.3743 67.7015 90.8487Z" fill="#000088"/>
<path d="M58.0046 69.8194L68.3413 73.2265L73.5006 73.9654L68.6625 72.0294L58.0046 69.8194Z" fill="#000088"/>
<path d="M63.7294 88.2769C63.4161 88.6846 63.4928 89.2684 63.9008 89.5809C64.3088 89.8934 64.8935 89.8163 65.2069 89.4087C65.5202 89.0011 65.4434 88.4172 65.0354 88.1047C64.6275 87.7922 64.0427 87.8693 63.7294 88.2769Z" fill="#000088"/>
<path d="M59.8144 65.4588L68.9148 71.4205L73.707 73.4662L69.5363 70.3458L59.8144 65.4588Z" fill="#000088"/>
<path d="M60.5591 84.7659C60.1508 85.0787 60.0735 85.6625 60.3866 86.0698C60.6996 86.4772 61.2843 86.5538 61.6926 86.241C62.1009 85.9282 62.1782 85.3443 61.8651 84.937C61.5521 84.5297 60.9673 84.453 60.5591 84.7659Z" fill="#000088"/>
<path d="M62.6929 61.7135L69.9375 69.8239L74.036 73.0383L70.8163 68.9464L62.6929 61.7135Z" fill="#000088"/>
<path d="M58.4069 80.5552C57.9315 80.7518 57.7056 81.2959 57.9023 81.7703C58.0991 82.2447 58.644 82.4698 59.1194 82.2732C59.5948 82.0765 59.8207 81.5325 59.6239 81.0581C59.4272 80.5837 58.8823 80.3585 58.4069 80.5552Z" fill="#000088"/>
<path d="M66.4441 58.8396L71.3393 68.5459L74.4647 72.71L72.4155 67.9255L66.4441 58.8396Z" fill="#000088"/>
<path d="M57.4196 75.9319C56.9095 75.999 56.5503 76.4662 56.6173 76.9753C56.6843 77.4844 57.1523 77.8427 57.6624 77.7756C58.1726 77.7084 58.5318 77.2413 58.4648 76.7321C58.3977 76.223 57.9298 75.8647 57.4196 75.9319Z" fill="#000088"/>
<path d="M70.8126 57.033L73.0244 67.6737L74.9638 72.5036L74.225 67.3525L70.8126 57.033Z" fill="#000088"/>
<path d="M57.6647 71.2106C57.1548 71.1437 56.6869 71.5024 56.6196 72.0118C56.5522 72.5212 56.911 72.9883 57.4209 73.0552C57.9308 73.1221 58.3987 72.7634 58.466 72.254C58.5333 71.7446 58.1746 71.2774 57.6647 71.2106Z" fill="#000088"/>
<path d="M75.5028 56.4169L74.8808 67.2668L75.4972 72.4331L76.1172 67.2664L75.5028 56.4169Z" fill="#000088"/>
<path d="M59.125 66.7139C58.6499 66.5175 58.105 66.7431 57.908 67.2177C57.7109 67.6924 57.9364 68.2364 58.4116 68.4328C58.8867 68.6292 59.4316 68.4037 59.6286 67.929C59.8257 67.4544 59.6002 66.9103 59.125 66.7139Z" fill="#000088"/>
<path d="M80.1885 57.0326L76.7757 67.353L76.0351 72.504L77.9741 67.6735L80.1885 57.0326Z" fill="#000088"/>
<path d="M61.7014 62.7478C61.2934 62.4353 60.7086 62.5124 60.3953 62.92C60.082 63.3276 60.1587 63.9114 60.5667 64.224C60.9747 64.5365 61.5595 64.4594 61.8728 64.0518C62.1861 63.6441 62.1094 63.0603 61.7014 62.7478Z" fill="#000088"/>
<path d="M84.5567 58.8391L78.585 67.9261L76.5346 72.7105L79.6597 68.5456L84.5567 58.8391Z" fill="#000088"/>
<path d="M65.2181 59.5826C64.9051 59.1752 64.3203 59.0986 63.912 59.4114C63.5037 59.7243 63.4265 60.3081 63.7396 60.7154C64.0526 61.1227 64.6373 61.1994 65.0456 60.8865C65.4539 60.5737 65.5311 59.9899 65.2181 59.5826Z" fill="#000088"/>
<path d="M88.3078 61.7128L80.1841 68.9473L76.9634 73.039L81.0617 69.8235L88.3078 61.7128Z" fill="#000088"/>
<path d="M69.435 57.4345C69.238 56.9598 68.6931 56.7342 68.2179 56.9306C67.7428 57.127 67.5173 57.671 67.7144 58.1457C67.9114 58.6204 68.4563 58.846 68.9314 58.6496C69.4066 58.4532 69.632 57.9092 69.435 57.4345Z" fill="#000088"/>
<path d="M91.1856 65.4588L81.4637 70.3458L77.293 73.4662L82.0852 71.4205L91.1856 65.4588Z" fill="#000088"/>
<path d="M74.0657 56.4488C73.9984 55.9395 73.5305 55.5807 73.0206 55.6476C72.5107 55.7145 72.1519 56.1817 72.2192 56.691C72.2865 57.2004 72.7545 57.5592 73.2643 57.4923C73.7742 57.4254 74.133 56.9582 74.0657 56.4488Z" fill="#000088"/>
<path d="M92.9951 69.8203L82.3373 72.0281L77.4997 73.9645L82.6592 73.2272L92.9951 69.8203Z" fill="#000088"/>
<path d="M78.7948 56.6934C78.8618 56.1844 78.5024 55.7172 77.9922 55.65C77.4819 55.5828 77.014 55.9409 76.9471 56.45C76.8801 56.959 77.2394 57.4262 77.7497 57.4934C78.2599 57.5606 78.7278 57.2025 78.7948 56.6934Z" fill="#000088"/>
<path d="M93.6123 74.5031L82.7448 73.882L77.5703 74.4969L82.7453 75.1157L93.6123 74.5031Z" fill="#000088"/>
<path d="M83.2986 58.1513C83.4953 57.6769 83.2695 57.1329 82.7941 56.9362C82.3187 56.7396 81.7738 56.9647 81.577 57.4392C81.3803 57.9136 81.6061 58.4576 82.0815 58.6543C82.5569 58.8509 83.1018 58.6257 83.2986 58.1513Z" fill="#000088"/>
<path d="M92.9955 79.1808L82.6587 75.7735L77.4993 75.0344L82.3375 76.9704L92.9955 79.1808Z" fill="#000088"/>
<path d="M87.271 60.7235C87.5841 60.3161 87.507 59.7323 87.0988 59.4195C86.6906 59.1068 86.1058 59.1835 85.7927 59.5909C85.4796 59.9983 85.5567 60.5821 85.965 60.8949C86.3732 61.2076 86.9579 61.1309 87.271 60.7235Z" fill="#000088"/>
<path d="M91.186 83.5419L82.0847 77.5799L77.2925 75.5331L81.4639 78.6533L91.186 83.5419Z" fill="#000088"/>
<path d="M90.4414 64.2345C90.8494 63.9219 90.9263 63.3381 90.613 62.9306C90.2998 62.523 89.715 62.446 89.307 62.7586C88.8989 63.0712 88.822 63.655 89.1353 64.0626C89.4485 64.4701 90.0333 64.5471 90.4414 64.2345Z" fill="#000088"/>
<path d="M88.3076 87.287L81.0619 79.1764L76.9635 75.9612L80.184 80.0529L88.3076 87.287Z" fill="#000088"/>
<path d="M92.5935 68.4452C93.0687 68.2487 93.2943 67.7046 93.0973 67.23C92.9004 66.7555 92.3555 66.53 91.8803 66.7265C91.405 66.923 91.1795 67.467 91.3764 67.9416C91.5733 68.4162 92.1182 68.6416 92.5935 68.4452Z" fill="#000088"/>
<path d="M84.5564 90.1607L79.66 80.4543L76.5348 76.2897L78.5848 81.0741L84.5564 90.1607Z" fill="#000088"/>
<path d="M93.5807 73.0684C94.0907 73.0015 94.4496 72.5343 94.3824 72.025C94.3152 71.5157 93.8472 71.1571 93.3373 71.2241C92.8273 71.2911 92.4684 71.7582 92.5356 72.2675C92.6028 72.7768 93.0707 73.1354 93.5807 73.0684Z" fill="#000088"/>
<path d="M80.1882 91.9672L77.9746 81.3265L76.0355 76.4961L76.7755 81.6472L80.1882 91.9672Z" fill="#000088"/>
</g>
</svg>
