<svg width="150" height="150" viewBox="0 0 150 150" fill="none" xmlns="http://www.w3.org/2000/svg">
<mask id="mask0_97_1093" style="mask-type:alpha" maskUnits="userSpaceOnUse" x="0" y="0" width="150" height="150">
<circle cx="75" cy="75" r="75" fill="#D9D9D9"/>
</mask>
<g mask="url(#mask0_97_1093)">
<g clip-path="url(#clip0_97_1093)">
<path d="M0 100.667H202V151H0V100.667Z" fill="#1EB53A"/>
<path d="M0 0H202V50.3333H0V0Z" fill="#0099B5"/>
<path d="M0 48.3201H202V102.68H0V48.3201Z" fill="#CE1126"/>
<path d="M0 51.3401H202V99.6601H0V51.3401Z" fill="white"/>
<path d="M42.42 42.28C52.4605 42.28 60.6 34.1674 60.6 24.16C60.6 14.1526 52.4605 6.04004 42.42 6.04004C32.3795 6.04004 24.24 14.1526 24.24 24.16C24.24 34.1674 32.3795 42.28 42.42 42.28Z" fill="white"/>
<path d="M48.48 42.28C58.5205 42.28 66.66 34.1674 66.66 24.16C66.66 14.1526 58.5205 6.04004 48.48 6.04004C38.4395 6.04004 30.3 14.1526 30.3 24.16C30.3 34.1674 38.4395 42.28 48.48 42.28Z" fill="#0099B5"/>
<path d="M82.4097 35.0383L81.2583 38.4811L83.0157 39.0851" fill="white"/>
<path d="M82.4097 35.0383L83.5611 38.4811L81.8037 39.0851" fill="white"/>
<path d="M85.8673 37.5436L82.2266 37.5132L82.1948 39.3673" fill="white"/>
<path d="M85.8669 37.5431L82.9395 39.698L81.819 38.2166" fill="white"/>
<path d="M78.9525 37.5431L81.8799 39.698L83.0004 38.2166" fill="white"/>
<path d="M78.9521 37.5436L82.5928 37.5132L82.6246 39.3673" fill="white"/>
<path d="M84.5475 41.5946L83.4472 38.1347L81.6701 38.6746" fill="white"/>
<path d="M84.5472 41.5948L81.5852 39.4828L82.6497 37.9653" fill="white"/>
<path d="M80.2731 41.5938L83.2347 39.4841L82.1682 37.9652" fill="white"/>
<path d="M80.273 41.5939L81.3707 38.1342L83.1493 38.6759" fill="white"/>
<path d="M82.4097 20.5425L81.2583 23.9853L83.0157 24.5893" fill="white"/>
<path d="M82.4097 20.5425L83.5611 23.9853L81.8037 24.5893" fill="white"/>
<path d="M85.8673 23.0478L82.2266 23.0173L82.1948 24.8715" fill="white"/>
<path d="M85.8669 23.0472L82.9395 25.2022L81.819 23.7207" fill="white"/>
<path d="M78.9525 23.0472L81.8799 25.2022L83.0004 23.7207" fill="white"/>
<path d="M78.9521 23.0478L82.5928 23.0173L82.6246 24.8715" fill="white"/>
<path d="M84.5475 27.0988L83.4472 23.6388L81.6701 24.1788" fill="white"/>
<path d="M84.5472 27.099L81.5852 24.987L82.6497 23.4695" fill="white"/>
<path d="M80.2731 27.0979L83.2347 24.9882L82.1682 23.4694" fill="white"/>
<path d="M80.273 27.0981L81.3707 23.6384L83.1493 24.1801" fill="white"/>
<path d="M82.4097 6.04639L81.2583 9.48919L83.0157 10.0932" fill="white"/>
<path d="M82.4097 6.04639L83.5611 9.48919L81.8037 10.0932" fill="white"/>
<path d="M85.8673 8.55167L82.2266 8.52124L82.1948 10.3754" fill="white"/>
<path d="M85.8669 8.55111L82.9395 10.7061L81.819 9.22464" fill="white"/>
<path d="M78.9525 8.55111L81.8799 10.7061L83.0004 9.22464" fill="white"/>
<path d="M78.9521 8.55167L82.5928 8.52124L82.6246 10.3754" fill="white"/>
<path d="M84.5475 12.6027L83.4472 9.14272L81.6701 9.68268" fill="white"/>
<path d="M84.5472 12.6029L81.5852 10.4909L82.6497 8.97336" fill="white"/>
<path d="M80.2731 12.6019L83.2347 10.4921L82.1682 8.9733" fill="white"/>
<path d="M80.273 12.602L81.3707 9.1423L83.1493 9.684" fill="white"/>
<path d="M96.9537 35.0383L95.8023 38.4811L97.5597 39.0851" fill="white"/>
<path d="M96.9537 35.0383L98.1051 38.4811L96.3477 39.0851" fill="white"/>
<path d="M100.411 37.5436L96.7706 37.5132L96.7388 39.3673" fill="white"/>
<path d="M100.411 37.5431L97.4835 39.698L96.363 38.2166" fill="white"/>
<path d="M93.4965 37.5431L96.4239 39.698L97.5444 38.2166" fill="white"/>
<path d="M93.4961 37.5436L97.1368 37.5132L97.1686 39.3673" fill="white"/>
<path d="M99.0915 41.5946L97.9913 38.1347L96.2141 38.6746" fill="white"/>
<path d="M99.0912 41.5948L96.1292 39.4828L97.1937 37.9653" fill="white"/>
<path d="M94.8171 41.5938L97.7787 39.4841L96.7123 37.9652" fill="white"/>
<path d="M94.817 41.5939L95.9147 38.1342L97.6933 38.6759" fill="white"/>
<path d="M96.9537 20.5425L95.8023 23.9853L97.5597 24.5893" fill="white"/>
<path d="M96.9537 20.5425L98.1051 23.9853L96.3477 24.5893" fill="white"/>
<path d="M100.411 23.0478L96.7706 23.0173L96.7388 24.8715" fill="white"/>
<path d="M100.411 23.0472L97.4835 25.2022L96.363 23.7207" fill="white"/>
<path d="M93.4965 23.0472L96.4239 25.2022L97.5444 23.7207" fill="white"/>
<path d="M93.4961 23.0478L97.1368 23.0173L97.1686 24.8715" fill="white"/>
<path d="M99.0915 27.0988L97.9913 23.6388L96.2141 24.1788" fill="white"/>
<path d="M99.0912 27.099L96.1292 24.987L97.1937 23.4695" fill="white"/>
<path d="M94.8171 27.0979L97.7787 24.9882L96.7123 23.4694" fill="white"/>
<path d="M94.817 27.0981L95.9147 23.6384L97.6933 24.1801" fill="white"/>
<path d="M96.9537 6.04639L95.8023 9.48919L97.5597 10.0932" fill="white"/>
<path d="M96.9537 6.04639L98.1051 9.48919L96.3477 10.0932" fill="white"/>
<path d="M100.411 8.55167L96.7706 8.52124L96.7388 10.3754" fill="white"/>
<path d="M100.411 8.55111L97.4835 10.7061L96.363 9.22464" fill="white"/>
<path d="M93.4965 8.55111L96.4239 10.7061L97.5444 9.22464" fill="white"/>
<path d="M93.4961 8.55167L97.1368 8.52124L97.1686 10.3754" fill="white"/>
<path d="M99.0915 12.6027L97.9913 9.14272L96.2141 9.68268" fill="white"/>
<path d="M99.0912 12.6029L96.1292 10.4909L97.1937 8.97336" fill="white"/>
<path d="M94.8171 12.6019L97.7787 10.4921L96.7123 8.9733" fill="white"/>
<path d="M94.817 12.602L95.9147 9.1423L97.6933 9.684" fill="white"/>
<path d="M111.498 35.0383L110.346 38.4811L112.104 39.0851" fill="white"/>
<path d="M111.498 35.0383L112.649 38.4811L110.892 39.0851" fill="white"/>
<path d="M114.955 37.5436L111.315 37.5132L111.283 39.3673" fill="white"/>
<path d="M114.955 37.5431L112.027 39.698L110.907 38.2166" fill="white"/>
<path d="M108.04 37.5431L110.968 39.698L112.088 38.2166" fill="white"/>
<path d="M108.04 37.5436L111.681 37.5132L111.713 39.3673" fill="white"/>
<path d="M113.635 41.5946L112.535 38.1347L110.758 38.6746" fill="white"/>
<path d="M113.635 41.5948L110.673 39.4828L111.738 37.9653" fill="white"/>
<path d="M109.361 41.5938L112.323 39.4841L111.256 37.9652" fill="white"/>
<path d="M109.361 41.5939L110.459 38.1342L112.237 38.6759" fill="white"/>
<path d="M111.498 20.5425L110.346 23.9853L112.104 24.5893" fill="white"/>
<path d="M111.498 20.5425L112.649 23.9853L110.892 24.5893" fill="white"/>
<path d="M114.955 23.0478L111.315 23.0173L111.283 24.8715" fill="white"/>
<path d="M114.955 23.0472L112.027 25.2022L110.907 23.7207" fill="white"/>
<path d="M108.04 23.0472L110.968 25.2022L112.088 23.7207" fill="white"/>
<path d="M108.04 23.0478L111.681 23.0173L111.713 24.8715" fill="white"/>
<path d="M113.635 27.0988L112.535 23.6388L110.758 24.1788" fill="white"/>
<path d="M113.635 27.099L110.673 24.987L111.738 23.4695" fill="white"/>
<path d="M109.361 27.0979L112.323 24.9882L111.256 23.4694" fill="white"/>
<path d="M109.361 27.0981L110.459 23.6384L112.237 24.1801" fill="white"/>
<path d="M111.498 6.04639L110.346 9.48919L112.104 10.0932" fill="white"/>
<path d="M111.498 6.04639L112.649 9.48919L110.892 10.0932" fill="white"/>
<path d="M114.955 8.55167L111.315 8.52124L111.283 10.3754" fill="white"/>
<path d="M114.955 8.55111L112.027 10.7061L110.907 9.22464" fill="white"/>
<path d="M108.04 8.55111L110.968 10.7061L112.088 9.22464" fill="white"/>
<path d="M108.04 8.55167L111.681 8.52124L111.713 10.3754" fill="white"/>
<path d="M113.635 12.6027L112.535 9.14272L110.758 9.68268" fill="white"/>
<path d="M113.635 12.6029L110.673 10.4909L111.738 8.97336" fill="white"/>
<path d="M109.361 12.6019L112.323 10.4921L111.256 8.9733" fill="white"/>
<path d="M109.361 12.602L110.459 9.1423L112.237 9.684" fill="white"/>
<path d="M53.3217 35.0383L52.1703 38.4811L53.9277 39.0851" fill="white"/>
<path d="M53.3217 35.0383L54.4731 38.4811L52.7157 39.0851" fill="white"/>
<path d="M56.7793 37.5436L53.1386 37.5132L53.1068 39.3673" fill="white"/>
<path d="M56.7789 37.5431L53.8514 39.698L52.731 38.2166" fill="white"/>
<path d="M49.8645 37.5431L52.7919 39.698L53.9124 38.2166" fill="white"/>
<path d="M49.8641 37.5436L53.5048 37.5132L53.5366 39.3673" fill="white"/>
<path d="M55.4595 41.5946L54.3592 38.1347L52.5821 38.6746" fill="white"/>
<path d="M55.4592 41.5948L52.4972 39.4828L53.5617 37.9653" fill="white"/>
<path d="M51.1851 41.5938L54.1467 39.4841L53.0802 37.9652" fill="white"/>
<path d="M51.185 41.5939L52.2827 38.1342L54.0613 38.6759" fill="white"/>
<path d="M67.8657 35.0383L66.7143 38.4811L68.4717 39.0851" fill="white"/>
<path d="M67.8657 35.0383L69.0171 38.4811L67.2597 39.0851" fill="white"/>
<path d="M71.3233 37.5436L67.6826 37.5132L67.6508 39.3673" fill="white"/>
<path d="M71.3229 37.5431L68.3954 39.698L67.275 38.2166" fill="white"/>
<path d="M64.4085 37.5431L67.3359 39.698L68.4564 38.2166" fill="white"/>
<path d="M64.4081 37.5436L68.0488 37.5132L68.0806 39.3673" fill="white"/>
<path d="M70.0035 41.5946L68.9032 38.1347L67.1261 38.6746" fill="white"/>
<path d="M70.0032 41.5948L67.0412 39.4828L68.1057 37.9653" fill="white"/>
<path d="M65.7291 41.5938L68.6907 39.4841L67.6242 37.9652" fill="white"/>
<path d="M65.729 41.5939L66.8267 38.1342L68.6053 38.6759" fill="white"/>
<path d="M67.8657 20.5425L66.7143 23.9853L68.4717 24.5893" fill="white"/>
<path d="M67.8657 20.5425L69.0171 23.9853L67.2597 24.5893" fill="white"/>
<path d="M71.3233 23.0478L67.6826 23.0173L67.6508 24.8715" fill="white"/>
<path d="M71.3229 23.0472L68.3954 25.2022L67.275 23.7207" fill="white"/>
<path d="M64.4085 23.0472L67.3359 25.2022L68.4564 23.7207" fill="white"/>
<path d="M64.4081 23.0478L68.0488 23.0173L68.0806 24.8715" fill="white"/>
<path d="M70.0035 27.0988L68.9032 23.6388L67.1261 24.1788" fill="white"/>
<path d="M70.0032 27.099L67.0412 24.987L68.1057 23.4695" fill="white"/>
<path d="M65.7291 27.0979L68.6907 24.9882L67.6242 23.4694" fill="white"/>
<path d="M65.729 27.0981L66.8267 23.6384L68.6053 24.1801" fill="white"/>
</g>
</g>
<defs>
<clipPath id="clip0_97_1093">
<rect width="202" height="151" fill="white"/>
</clipPath>
</defs>
</svg>
